<svg width="61" height="66" viewBox="0 0 61 66" fill="none" xmlns="http://www.w3.org/2000/svg">
<g clip-path="url(#clip0)">
<path d="M56.4198 52.7476C55.9675 56.1095 53.705 59.0185 50.5377 60.3113C48.9861 60.957 47.3057 61.1516 45.6247 60.957C44.0089 60.7634 42.3927 60.2462 40.7122 59.2775C38.3849 57.9833 36.0578 55.9803 33.343 53.0066C37.6096 47.7706 40.1945 42.987 41.1646 38.7214C41.6172 36.7173 41.6816 34.9072 41.488 33.2262C41.2297 31.6105 40.6478 30.1231 39.7424 28.8305C37.7385 25.922 34.3775 24.241 30.6282 24.241C26.879 24.241 23.5178 25.9866 21.5139 28.8305C20.6085 30.1234 20.0275 31.6105 19.7685 33.2262C19.5102 34.9072 19.5747 36.7817 20.0919 38.7216C21.0613 42.9868 23.7114 47.8353 27.9135 53.0703C25.2632 56.0448 22.8714 58.0484 20.544 59.3415C18.8636 60.3113 17.2473 60.8286 15.6315 61.0217C13.9658 61.2078 12.2799 60.9862 10.7188 60.376C7.55122 59.0832 5.28926 56.1732 4.83645 52.812C4.64286 51.1965 4.772 49.5807 5.4184 47.7706C5.612 47.1237 5.93567 46.4785 6.2584 45.7023C6.71122 44.6684 7.22848 43.5687 7.74505 42.4695L7.8102 42.3411C12.2699 32.709 17.0537 22.8837 22.0311 13.3173L22.225 12.9287C22.7422 11.96 23.2588 10.9262 23.7765 9.95609C24.2933 8.92156 24.875 7.95172 25.5859 7.11078C26.9434 5.55922 28.7535 4.71898 30.7574 4.71898C32.7613 4.71898 34.5711 5.55922 35.9286 7.11102C36.6397 7.95172 37.2215 8.92156 37.7387 9.95633C38.256 10.9262 38.7725 11.96 39.2898 12.9287L39.4843 13.3173C44.3966 22.9482 49.1804 32.7734 53.6406 42.4055V42.4695C54.1579 43.5041 54.61 44.6684 55.1272 45.7023C55.4507 46.4785 55.7736 47.1235 55.9672 47.7706C56.4845 49.4511 56.6783 51.0678 56.42 52.7476H56.4198ZM30.6282 49.7091C27.1379 45.3141 24.875 41.1767 24.0995 37.6871C23.7768 36.2 23.7114 34.9072 23.9059 33.7435C24.0348 32.709 24.4232 31.8036 24.9395 31.0273C26.1679 29.2836 28.2362 28.1827 30.6282 28.1827C33.02 28.1827 35.1531 29.218 36.3165 31.0273C36.8333 31.8036 37.2214 32.709 37.3506 33.7435C37.5444 34.9072 37.4797 36.2645 37.1568 37.6871C36.3812 41.1127 34.1186 45.2497 30.6282 49.7091ZM59.7812 46.3482C59.4582 45.5724 59.1348 44.7324 58.8118 44.0213C58.2946 42.8584 57.7773 41.7587 57.3247 40.7241L57.26 40.6602C52.8004 30.9634 48.0165 21.1381 42.9744 11.4434L42.7808 11.0544C42.2636 10.0848 41.7463 9.05023 41.2297 8.01617C40.5829 6.85203 39.9362 5.62508 38.9024 4.4607C36.8331 1.87508 33.8603 0.453125 30.6925 0.453125C27.4604 0.453125 24.5518 1.87508 22.4183 4.33203C21.4492 5.49523 20.7381 6.72336 20.0917 7.88773C19.5744 8.92156 19.0572 9.95609 18.5401 10.9262L18.3463 11.3129C13.3693 21.009 8.52106 30.8349 4.06067 40.531L3.99622 40.6602C3.5434 41.694 3.02614 42.7925 2.50887 43.9569C2.16306 44.723 1.83988 45.4991 1.53973 46.2842C0.69903 48.6753 0.440749 50.9382 0.763717 53.2648C1.47528 58.1131 4.70731 62.1861 9.16747 63.9955C10.8477 64.707 12.5931 65.03 14.4034 65.03C14.9204 65.03 15.5668 64.9653 16.0841 64.9002C18.2169 64.6412 20.4147 63.9315 22.5475 62.7027C25.1982 61.216 27.7194 59.0832 30.5633 55.9803C33.4072 59.0832 35.9931 61.2162 38.5787 62.7027C40.7122 63.9315 42.9097 64.6412 45.0428 64.9002C45.56 64.9653 46.2065 65.03 46.7235 65.03C48.5336 65.03 50.3432 64.707 51.9594 63.9955C56.4843 62.1861 59.6516 58.0487 60.3627 53.2648C60.88 51.0019 60.621 48.7407 59.781 46.348L59.7812 46.3482Z" fill="#E0565B"/>
</g>
<defs>
<clipPath id="clip0">
<rect width="60" height="64.6875" fill="white" transform="translate(0.629395 0.453125)"/>
</clipPath>
</defs>
</svg>
