<svg width="151" height="61" viewBox="0 0 151 61" fill="none" xmlns="http://www.w3.org/2000/svg">
<g clip-path="url(#clip0)">
<path d="M0.629395 0.796875V4.89795H29.7982V0.796875H0.629395ZM33.9309 0.796875V4.89795H75.4977C75.4977 4.89795 71.2517 0.796875 65.6284 0.796875H33.9309ZM83.6518 0.796875V4.89795H108.799L107.306 0.796875H83.6518ZM126.828 0.796875L125.336 4.89795H150.255V0.796875H126.828ZM0.629395 8.77248V12.8736H29.7982V8.77248H0.629395ZM33.9309 8.77834V12.8736H80.3211C80.3211 12.8736 79.7793 9.71727 78.8343 8.77834H33.9309ZM83.6518 8.77834V12.8736H111.556L110.175 8.77834H83.6518ZM123.843 8.77834L122.462 12.8736H150.255V8.77834H123.843ZM9.01183 16.7481V20.8544H21.644V16.7481H9.01183ZM42.3133 16.7481V20.8544H54.9455V16.7481H42.3133ZM67.2323 16.7481V20.8544H79.8645C79.8645 20.8544 80.6665 18.6857 80.6665 16.7478H67.2323V16.7481ZM92.0343 16.7481V20.8544H114.43L112.938 16.7478H92.0343V16.7481ZM121.092 16.7481L119.593 20.8547H142.101V16.7481H121.092ZM9.01183 24.7296V28.83H21.644V24.7296H9.01183ZM42.3133 24.7296V28.83H74.5787C74.5787 28.83 77.2778 26.7257 78.1377 24.729H42.3133V24.7296ZM92.0343 24.7296V28.83H104.666V26.5471L105.468 28.83H128.608L129.468 26.5471V28.83H142.101V24.7296H118.387L117.129 28.2034L115.865 24.7296H92.0343ZM9.01183 32.7046V36.8057H21.644V32.7046H9.01183ZM42.3133 32.7046V36.8057H78.1377C77.2775 34.8154 74.5787 32.7046 74.5787 32.7046H42.3133ZM92.0343 32.7046V36.8057H104.666V32.7046H92.0343ZM106.961 32.7046L108.489 36.8057H125.839L127.291 32.7046H106.961ZM129.468 32.7046V36.8057H142.101V32.7046H129.468ZM9.01183 40.6802V44.7813H21.644V40.6802H9.01183ZM42.3133 40.6802V44.7813H54.9455V40.6802H42.3133ZM67.2323 40.6802V44.7813H80.6665C80.6665 42.8458 79.8645 40.6802 79.8645 40.6802H67.2323ZM92.0343 40.6802V44.7813H104.666V40.6802H92.0343ZM109.829 40.6802L111.31 44.7813H122.942L124.434 40.6802H109.829ZM129.468 40.6802V44.7813H142.101V40.6802H129.468ZM0.857687 48.6561V52.7627H30.0265V48.6558H0.857687V48.6561ZM33.9309 48.6561V52.7627H78.8343C79.7793 51.8223 80.3211 48.6558 80.3211 48.6558H33.9309V48.6561ZM83.8801 48.6561V52.7627H104.666V48.6558H83.8801V48.6561ZM112.704 48.6561L114.225 52.7627H120.144L121.572 48.6558H112.704V48.6561ZM129.468 48.6561V52.7627H150.483V48.6558H129.468V48.6561ZM0.857687 56.6373V60.7383H30.0265V56.6373H0.857687ZM33.9309 56.6373V60.7322H65.6284C71.2517 60.7322 75.4977 56.637 75.4977 56.637H33.9309V56.6373ZM83.8801 56.6373V60.7383H104.666V56.6373H83.8801ZM115.589 56.6373L117.053 60.7263L117.305 60.7322L118.791 56.637H115.589V56.6373ZM129.468 56.6373V60.7383H150.483V56.6373H129.468Z" fill="#1F70C1"/>
</g>
<defs>
<clipPath id="clip0">
<rect width="149.854" height="60" fill="white" transform="translate(0.629395 0.796875)"/>
</clipPath>
</defs>
</svg>
