<svg width="42" height="42" viewBox="0 0 42 42" fill="none" xmlns="http://www.w3.org/2000/svg">
<path d="M36.2104 4.55322H6.75129C6.04283 4.55322 5.47046 5.12559 5.47046 5.83405V35.2932C5.47046 36.0016 6.04283 36.574 6.75129 36.574H36.2104C36.9189 36.574 37.4912 36.0016 37.4912 35.2932V5.83405C37.4912 5.12559 36.9189 4.55322 36.2104 4.55322ZM32.512 13.8993H29.9543C27.949 13.8993 27.5608 14.8519 27.5608 16.2528V19.3388H32.3479L31.7235 24.17H27.5608V36.574H22.5696V24.174H18.3948V19.3388H22.5696V15.7765C22.5696 11.6418 25.0952 9.38836 28.7856 9.38836C30.5547 9.38836 32.0717 9.52045 32.516 9.58048V13.8993H32.512Z" fill="white"/>
</svg>
