<svg width="42" height="42" viewBox="0 0 42 42" fill="none" xmlns="http://www.w3.org/2000/svg">
<path d="M36.198 4.55322H6.73884C6.03038 4.55322 5.45801 5.12559 5.45801 5.83405V35.2932C5.45801 36.0016 6.03038 36.574 6.73884 36.574H36.198C36.9064 36.574 37.4788 36.0016 37.4788 35.2932V5.83405C37.4788 5.12559 36.9064 4.55322 36.198 4.55322ZM14.9562 31.8389H10.2051V16.557H14.9562V31.8389ZM12.5826 14.4677C12.038 14.4677 11.5056 14.3061 11.0527 14.0036C10.5999 13.701 10.2469 13.2709 10.0385 12.7677C9.83004 12.2645 9.7755 11.7108 9.88176 11.1766C9.98801 10.6424 10.2503 10.1518 10.6354 9.76665C11.0205 9.38152 11.5112 9.11925 12.0454 9.013C12.5796 8.90674 13.1333 8.96127 13.6365 9.1697C14.1396 9.37813 14.5697 9.73109 14.8723 10.1839C15.1749 10.6368 15.3364 11.1692 15.3364 11.7139C15.3324 13.2349 14.0996 14.4677 12.5826 14.4677ZM32.7437 31.8389H27.9966V24.4061C27.9966 22.633 27.9646 20.3555 25.527 20.3555C23.0574 20.3555 22.6772 22.2847 22.6772 24.278V31.8389H17.9341V16.557H22.4891V18.6464H22.5531C23.1855 17.4456 24.7345 16.1768 27.048 16.1768C31.8591 16.1768 32.7437 19.3428 32.7437 23.4575V31.8389Z" fill="white"/>
</svg>
