<svg width="46" height="47" viewBox="0 0 46 47" fill="none" xmlns="http://www.w3.org/2000/svg">
<path d="M22.9999 26.9036C27.2281 26.9036 30.6666 23.4651 30.6666 19.237C30.6666 15.0088 27.2281 11.5703 22.9999 11.5703C18.7718 11.5703 15.3333 15.0088 15.3333 19.237C15.3333 23.4651 18.7718 26.9036 22.9999 26.9036ZM22.9999 15.4036C25.114 15.4036 26.8333 17.1229 26.8333 19.237C26.8333 21.3511 25.114 23.0703 22.9999 23.0703C20.8858 23.0703 19.1666 21.3511 19.1666 19.237C19.1666 17.1229 20.8858 15.4036 22.9999 15.4036Z" fill="black"/>
<path d="M21.8883 41.8806C22.2127 42.1123 22.6014 42.2368 23 42.2368C23.3986 42.2368 23.7873 42.1123 24.1117 41.8806C24.6943 41.4686 38.3889 31.5805 38.3333 19.2371C38.3333 10.7827 31.4544 3.90381 23 3.90381C14.5456 3.90381 7.66667 10.7827 7.66667 19.2276C7.61109 31.5805 21.3057 41.4686 21.8883 41.8806ZM23 7.73714C29.3423 7.73714 34.5 12.8949 34.5 19.2467C34.5403 27.7529 26.0897 35.3908 23 37.8959C19.9123 35.3889 11.4598 27.7491 11.5 19.2371C11.5 12.8949 16.6578 7.73714 23 7.73714Z" fill="white"/>
</svg>
